PathFileType	4	(X/Y/Z)	C:\Users\willi\Desktop\Data_PaperCallum_v2\17_Akif\Gait05\marker_experimental_temp.trc
DataRate	CameraRate	NumFrames	NumMarkers	Units	OrigDataRate	OrigDataStartFrame	OrigNumFrames
100.000000	100.000000	4	27	mm	100.000000	79	213
Frame#	Time	C7			T10			Clav			Sternum			Right_Back			PCL_CRAN			PCL_RECHTS			PCL_LINKS			RCL_UL_CRAN			RCL_UL_POST			RCL_UL_ANT			RCL_LL_CRAN			RCL_LL_POST			RCL_LL_ANT			Right_Heel			Right_Toe			Right_M5			LCL_UL_CRAN			LCL_UL_POST			LCL_UL_ANT			LCL_LL_CRAN			LCL_LL_POST			LCL_LL_ANT			Left_Heel			Left_Toe			Left_M5			*26			
		X1	Y1	Z1	X2	Y2	Z2	X3	Y3	Z3	X4	Y4	Z4	X5	Y5	Z5	X6	Y6	Z6	X7	Y7	Z7	X8	Y8	Z8	X9	Y9	Z9	X10	Y10	Z10	X11	Y11	Z11	X12	Y12	Z12	X13	Y13	Z13	X14	Y14	Z14	X15	Y15	Z15	X16	Y16	Z16	X17	Y17	Z17	X18	Y18	Z18	X19	Y19	Z19	X20	Y20	Z20	X21	Y21	Z21	X22	Y22	Z22	X23	Y23	Z23	X24	Y24	Z24	X25	Y25	Z25	X26	Y26	Z26	X27	Y27	Z27	

80	0.79	718.2418212890624	1373.050903320313	163.4975280761718	742.6281127929686	1153.422973632813	168.4155120849609	572.3127441406249	1306.273071289063	170.8494110107422	505.5279541015624	1146.649169921875	195.3320007324218	751.8604736328124	1302.687255859375	59.39248275756832	724.8803710937499	989.7841186523438	154.2088012695312	732.2097778320311	931.529541015625	127.4671936035156	738.6708374023436	929.7954711914063	177.6235961914062	531.4627685546875	708.5565185546875	-1.498703241348299	528.0072631835938	644.0546264648438	4.11348772048947	482.7903442382812	666.135498046875	6.479188919067354	447.5570678710938	367.4050598144531	40.00893783569333	455.6000671386719	303.1173706054688	35.94569015502927	407.4691162109375	315.7847290039063	46.21823883056638	437.2265319824219	24.29090881347659	127.6878280639648	243.6059112548828	50.71621322631837	124.2634201049805	283.1509399414063	24.57082557678224	69.91818237304686	687.11474609375	728.9075317382813	344.8448181152343	714.5908203125	670.1691284179688	335.5058288574218	666.2922973632813	667.0333251953125	347.7871704101562	846.4085693359375	386.7670288085938	321.5150146484374	902.126953125	351.0334777832032	320.0524597167968	860.5945434570313	323.3110351562501	315.5205383300781	1090.39306640625	134.7404327392579	233.2188568115234	928.7182006835938	29.04641914367681	237.2444458007812	981.5244750976563	16.77994155883795	291.6701660156249	nan	nan	nan	
81	0.8	703.9774169921874	1373.72705078125	161.8806610107421	727.5917358398436	1154.04931640625	167.3045349121093	557.8038330078124	1307.49365234375	169.553466796875	490.3713989257812	1148.202026367188	194.2137298583984	737.1166381835936	1303.110961914063	57.67884445190425	709.4802856445311	990.7068481445313	153.8038024902343	716.8062744140624	932.5755615234375	126.6879806518554	723.0425415039061	930.519287109375	176.8445587158203	516.6749877929688	710.233642578125	-3.063493251800569	513.5029907226563	645.7546997070313	3.035731554031341	468.1794738769531	667.7479858398438	5.075786113738985	435.9462585449219	367.9813232421875	38.73020553588864	445.066650390625	304.1392211914063	34.14774322509763	397.1677551269531	315.3795471191406	45.44104003906248	436.8184509277344	25.50116920471194	127.1525268554687	240.7956085205078	45.00211334228517	124.4352874755859	281.9664001464844	19.75774955749513	69.80582427978514	669.430419921875	728.4330444335938	344.0289306640624	696.412353515625	669.5081787109375	335.1713256835937	648.0819091796875	666.7472534179688	347.3424682617187	828.5717163085938	388.0895385742188	323.6669616699218	885.5984497070313	354.2186889648438	321.4091491699218	845.0870971679688	325.3569946289063	317.7766113281249	1078.351196289063	146.8078155517579	233.3956756591796	929.0534057617188	29.49615669250494	237.2685394287109	981.2318725585938	20.03493309021002	290.8023376464843	nan	nan	nan	
82	0.8100000000000001	689.7438964843749	1374.679809570313	160.2701873779297	712.6528930664061	1154.970825195313	166.1811981201171	543.3541259765624	1308.96630859375	168.3029022216797	475.3238525390624	1149.985473632813	193.1460876464843	722.3668823242186	1303.842041015625	55.9235343933105	694.2389526367186	991.8917236328125	153.3818969726562	701.5473632812499	933.875732421875	125.918228149414	707.5713500976561	931.512451171875	176.0718536376953	502.4880981445312	711.9417114257813	-4.686034679412873	499.8064575195312	647.45166015625	1.829967617988556	454.3172607421874	669.2303466796875	3.360603809356661	425.214111328125	368.5796203613281	37.42012405395505	435.3931579589844	305.2007446289063	32.30218505859372	387.7276306152344	315.0460510253906	44.57739639282224	436.4105224609375	26.67392158508304	126.5966873168945	238.4414215087891	40.48983001708986	124.3278350830078	281.0618896484375	15.96167087554933	69.39562225341795	651.4325561523438	728.0946044921875	343.2327270507812	677.7085571289063	668.8809814453125	334.9105224609374	629.3568115234375	666.6576538085938	346.9501342773437	809.3182373046875	389.3991699218751	325.9043884277343	867.4694213867188	357.3251953125001	322.8274841308593	827.9238891601563	327.3578186035157	320.2517089843749	1064.304809570313	159.4530944824219	233.4399719238281	928.4838256835938	30.62223625183111	237.2237396240234	979.69873046875	24.50714683532721	290.0193481445312	nan	nan	nan	
83	0.8200000000000001	675.5495605468749	1375.8935546875	158.6730041503906	697.8307495117186	1156.171997070313	165.0411224365234	528.9750976562499	1310.667724609375	167.1048583984375	460.4089965820312	1151.969604492188	192.13623046875	707.6215820312499	1304.869262695313	54.13280487060543	679.1815795898436	993.3162841796875	152.9294281005859	686.4572753906249	935.405029296875	125.1530075073242	692.2861938476561	932.7572631835938	175.300552368164	488.9145507812499	713.6397094726563	-6.321579456329376	486.9026489257812	649.1130981445313	0.5369431376456916	441.1959533691406	670.5507202148438	1.410621881484958	415.4212341308594	369.1611938476563	36.1211242675781	426.7086181640625	306.2164916992188	30.54993629455564	379.2015075683594	314.7501220703125	43.66513061523435	435.9830017089844	27.7244567871094	126.0633087158203	236.5373992919922	37.15111923217775	124.0719451904297	280.372802734375	13.1693859100342	68.80652618408202	633.1844482421875	727.9130859375	342.4682312011718	658.5467529296875	668.30419921875	334.7174377441406	610.1918334960938	666.78466796875	346.6207275390624	788.6541748046875	390.6906738281251	328.1900939941406	847.71630859375	360.2976074218751	324.3111877441406	809.04443359375	329.2509155273438	322.8647460937499	1048.333251953125	172.4554595947266	233.4414825439453	926.49658203125	32.57701873779303	237.1596374511718	976.4324951171875	30.25367355346686	289.4122619628906	nan	nan	nan	
